<?xml version="1.0" encoding="UTF-8" standalone="no"?>
<!-- Created with Inkscape (http://www.inkscape.org/) -->

<svg
   width="512"
   height="512"
   viewBox="0 0 512 512"
   version="1.1"
   id="svg1"
   xml:space="preserve"
   xmlns="http://www.w3.org/2000/svg"
   xmlns:svg="http://www.w3.org/2000/svg"><defs
     id="defs1" /><rect
     style="fill:#3f2cb4;fill-opacity:1;stroke:#000000;stroke-width:9;stroke-linecap:butt;stroke-dasharray:none;stroke-opacity:1;paint-order:markers stroke fill"
     id="rect19"
     width="463.15979"
     height="449.42731"
     x="23.09557"
     y="29.961823"
     ry="44.871529"
     rx="38.700687" /><g
     id="layer2"><g
       id="g19"
       transform="matrix(1.1757225,0,0,1.1757225,-40.639554,-16.414059)"
       style="stroke:#ffffff;stroke-opacity:1"><path
         style="display:inline;opacity:1;fill:none;fill-opacity:1;stroke:#ffffff;stroke-width:3;stroke-dasharray:none;stroke-opacity:1;paint-order:markers stroke fill"
         d="m 386.42759,199.06207 c 0,0 -19.18407,25.21501 -13.90345,40.16552 5.28062,14.95051 52.08275,26.92413 52.08275,26.92413"
         id="path7" /><circle
         style="fill:#b42c35;fill-opacity:1;stroke:#ffffff;stroke-width:3;stroke-dasharray:none;stroke-opacity:1"
         id="path1"
         cx="255.84395"
         cy="247.82339"
         r="16" /><circle
         style="fill:#d8af00;fill-opacity:1;stroke:#ffffff;stroke-width:3;stroke-dasharray:none;stroke-opacity:1"
         id="path1-61"
         cx="337.91379"
         cy="232.1138"
         r="16" /><circle
         style="fill:#d8af00;fill-opacity:1;stroke:#ffffff;stroke-width:3;stroke-dasharray:none;stroke-opacity:1"
         id="path1-61-2"
         cx="262.9361"
         cy="131.00333"
         r="16" /><circle
         style="fill:none;stroke:#ffffff;stroke-width:3;stroke-dasharray:none;stroke-opacity:1"
         id="path1-6"
         cx="193.35518"
         cy="310.28619"
         r="16" /><circle
         style="fill:#007f07;fill-opacity:1;stroke:#ffffff;stroke-width:3;stroke-dasharray:none;stroke-opacity:1"
         id="path1-6-2"
         cx="145.44482"
         cy="310.44482"
         r="16" /><circle
         style="fill:#2c70b4;fill-opacity:1;stroke:#ffffff;stroke-width:3;stroke-dasharray:none;stroke-opacity:1"
         id="path1-6-3"
         cx="364.83795"
         cy="310.7345"
         r="16" /><circle
         style="fill:#2cb4ae;fill-opacity:1;stroke:#ffffff;stroke-width:3;stroke-dasharray:none;stroke-opacity:1"
         id="path1-6-2-6"
         cx="316.92758"
         cy="310.89313"
         r="16" /><path
         style="fill:none;fill-opacity:1;stroke:#ffffff;stroke-width:3;stroke-dasharray:none;stroke-opacity:1;paint-order:markers stroke fill"
         d="m 122.92414,195.53103 c -0.20975,-11.60339 10.80731,-18.33777 19.42068,-18.75862 9.07426,0.085 18.94091,5.67549 18.97932,18.31725 0,0 -0.14142,33.61514 0,39.72413 0.14142,6.10899 -5.24196,14.44008 -18.75862,14.56552 -13.51666,0.12544 -19.24717,-6.69327 -19.2,-13.68276 0.0472,-6.98949 -0.44138,-40.16552 -0.44138,-40.16552 z"
         id="path2" /><path
         style="fill:#6c6c6c;fill-opacity:1;stroke:#ffffff;stroke-width:5.10325;stroke-dasharray:none;stroke-opacity:1;paint-order:markers stroke fill"
         d="m 314.26207,142.56552 h 48.55172 l -16.33103,55.17241 h -13.24138 z"
         id="path3" /><rect
         style="fill:none;fill-opacity:1;stroke:#ffffff;stroke-width:3;stroke-dasharray:none;stroke-opacity:1;paint-order:markers stroke fill"
         id="rect3"
         width="56.496552"
         height="21.186207"
         x="200.85207"
         y="177.90034" /><path
         style="fill:none;fill-opacity:1;stroke:#ffffff;stroke-width:3;stroke-dasharray:none;stroke-opacity:1;paint-order:markers stroke fill"
         d="M 122.96659,236.13793 H 75.475862 v 46.34483 c 0,0 318.675858,-0.88276 319.558618,0 0.88276,0.88276 29.82423,-17.21903 29.82423,-17.21903 l -38.19713,-66.15936 h -128.0133 v 0.39908"
         id="path6" /><path
         style="fill:none;fill-opacity:1;stroke:#ffffff;stroke-width:3;stroke-dasharray:none;stroke-opacity:1;paint-order:markers stroke fill"
         d="m 161.12281,197.87286 c 0.46816,0.15605 18.41404,0 18.41404,0 h -0.46815"
         id="path8" /><path
         style="fill:none;fill-opacity:1;stroke:#ffffff;stroke-width:3;stroke-dasharray:none;stroke-opacity:1;paint-order:markers stroke fill"
         d="m 122.73423,197.56076 h -20.59875 0.3121"
         id="path9" /><path
         style="fill:none;fill-opacity:1;stroke:#ffffff;stroke-width:3;stroke-dasharray:none;stroke-opacity:1;paint-order:markers stroke fill"
         d="M 203.91724,296.82759 243.2,258.86897"
         id="path10" /><path
         style="fill:none;fill-opacity:1;stroke:#ffffff;stroke-width:3;stroke-dasharray:none;stroke-opacity:1;paint-order:markers stroke fill"
         d="m 266.5931,259.31034 38.84138,39.28276"
         id="path11" /><path
         style="fill:none;fill-opacity:1;stroke:#ffffff;stroke-width:3;stroke-dasharray:none;stroke-opacity:1;paint-order:markers stroke fill"
         d="m 209.21379,311.83448 h 34.42759"
         id="path12" /><path
         style="fill:none;fill-opacity:1;stroke:#ffffff;stroke-width:3;stroke-dasharray:none;stroke-opacity:1;paint-order:markers stroke fill"
         d="M 177.98295,312.27586 H 161.25721"
         id="path13" /><path
         style="fill:none;fill-opacity:1;stroke:#ffffff;stroke-width:3;stroke-dasharray:none;stroke-opacity:1;paint-order:markers stroke fill"
         d="M 128.44138,311.83448 H 60.468966 60.910345"
         id="path14" /><path
         style="fill:none;fill-opacity:1;stroke:#ffffff;stroke-width:3;stroke-dasharray:none;stroke-opacity:1;paint-order:markers stroke fill"
         d="m 256.44138,311.83448 h 43.69655 v 0"
         id="path15" /><path
         style="fill:none;fill-opacity:1;stroke:#ffffff;stroke-width:3;stroke-dasharray:none;stroke-opacity:1;paint-order:markers stroke fill"
         d="m 333.68276,311.3931 h 15.88965"
         id="path16" /><path
         style="fill:none;fill-opacity:1;stroke:#ffffff;stroke-width:3;stroke-dasharray:none;stroke-opacity:1;paint-order:markers stroke fill"
         d="m 380.91035,311.3931 h 61.35172"
         id="path17" /><path
         style="fill:none;fill-opacity:1;stroke:#ffffff;stroke-width:2.68343;stroke-dasharray:none;stroke-opacity:1;paint-order:markers stroke fill"
         d="M 327.18912,219.69779 274.01925,142.67463"
         id="path18" /><path
         style="fill:#d8af00;fill-opacity:1;stroke:#ffffff;stroke-width:5.10325;stroke-dasharray:none;stroke-opacity:1;paint-order:markers stroke fill"
         d="m 272.69896,197.48783 c 0,0 -2.84832,-26.50724 12.61488,-26.50724 15.4632,0 13.4265,26.50724 13.4265,26.50724 z"
         id="path19" /></g></g></svg>
